<svg width="227" height="18" viewBox="0 0 227 18" fill="none" xmlns="http://www.w3.org/2000/svg">
<path d="M6.66797 6.42969C6.66797 7.12109 8.57812 7.21484 11.0508 7.33203C15.4453 7.55469 21.6211 7.85938 21.6094 11.8086C21.6094 16.3086 16.4531 17.375 10.9219 17.375C5.40234 17.3633 0.820312 16.6953 0.234375 11.8086H6.66797C7.37109 13.0273 9 13.3438 10.9219 13.3438C12.832 13.3438 15.1758 13.0273 15.1758 11.8086C15.1758 11.1172 13.2656 11.0117 10.793 10.8945C6.39844 10.6719 0.222656 10.3672 0.234375 6.42969C0.234375 1.92969 5.39062 0.851562 10.9219 0.851562C16.4414 0.886719 21.0234 1.50781 21.6094 6.42969H15.1758C14.4727 5.1875 12.8438 4.89453 10.9219 4.89453C9.01172 4.89453 6.66797 5.17578 6.66797 6.42969ZM29.3906 8.55078H36.8906C37.2539 8.55078 37.5703 8.42188 37.8281 8.16406C38.0977 7.89453 38.2266 7.57812 38.2266 7.21484C38.2266 6.83984 38.0977 6.52344 37.8281 6.26562C37.5703 5.99609 37.2539 5.86719 36.8906 5.86719H29.3906V8.55078ZM23.25 1.26172H38.4258C41.6719 1.22656 44.4258 3.95703 44.3789 7.21484C44.4258 10.4609 41.6719 13.2148 38.4258 13.168H29.3906V17.0117H23.25V1.26172ZM46.0547 17.0117V1.26172H64.4883V5.29297H52.1953V7.30859H64.4883V10.9531H52.1953V12.9688H64.4883V17.0117H46.0547ZM81.4922 10.4609H87.7852C87.3984 15.7812 82.7344 17.375 77.0625 17.375C71.1562 17.3633 66.2812 15.6523 66.3047 9.6875V8.53906C66.2812 2.58594 71.1562 0.875 77.0625 0.851562C82.7344 0.863281 87.3984 2.45703 87.7852 7.76562H81.4922C80.918 6.21875 79.1719 5.85547 77.0625 5.85547C74.5547 5.89062 72.4219 6.33594 72.457 8.92578V9.3125C72.4219 11.8789 74.5547 12.3477 77.0625 12.3828C79.1719 12.3828 80.9297 12.0078 81.4922 10.4609Z" fill="#73FF0F"/>
<path d="M94.4062 8.55078H101.906C102.27 8.55078 102.586 8.42188 102.844 8.16406C103.113 7.89453 103.242 7.57812 103.242 7.21484C103.242 6.83984 103.113 6.52344 102.844 6.26562C102.586 5.99609 102.27 5.86719 101.906 5.86719H94.4062V8.55078ZM88.2656 1.26172H103.441C106.688 1.22656 109.441 3.95703 109.395 7.21484C109.441 10.4609 106.688 13.2148 103.441 13.168H94.4062V17.0117H88.2656V1.26172ZM111.07 1.25H126.246C129.492 1.21484 132.246 3.94531 132.199 7.20312C132.199 8.38672 131.883 9.46484 131.25 10.4258C130.629 11.375 129.797 12.1016 128.766 12.582L132.199 17H125.66L122.695 13.1562H117.211V17H111.07V1.25ZM124.699 5.85547H117.211V8.53906H124.699C125.074 8.53906 125.391 8.41016 125.648 8.15234C125.918 7.88281 126.047 7.56641 126.047 7.20312C126.047 6.45312 125.449 5.85547 124.699 5.85547ZM144.422 0.851562C150.352 0.851562 155.168 2.58594 155.168 8.53906V9.6875C155.191 15.6406 150.34 17.3633 144.422 17.375C138.492 17.3633 133.641 15.6406 133.664 9.6875V8.53906C133.641 2.57422 138.492 0.863281 144.422 0.851562ZM149.027 9.30078V8.91406C149.062 6.34766 146.93 5.87891 144.422 5.84375C141.902 5.87891 139.77 6.34766 139.805 8.91406V9.30078C139.77 11.8789 141.902 12.3477 144.422 12.3828C146.93 12.3477 149.062 11.8789 149.027 9.30078ZM157.008 17.0117V1.26172H176.215V6.25391H163.148V8.17578H174.68V12.7812H163.148V17.0117H157.008ZM177.984 1.23828H184.125V16.9883H177.984V1.23828ZM187.383 1.23828H193.523V11.9961H205.816V16.9883H187.383V1.23828ZM207.914 17.0117V1.26172H226.348V5.29297H214.055V7.30859H226.348V10.9531H214.055V12.9688H226.348V17.0117H207.914Z" fill="#4F00B6"/>
</svg>
