<svg width="151" height="12" viewBox="0 0 151 12" fill="none" xmlns="http://www.w3.org/2000/svg">
<path d="M4.44531 3.95312C4.44531 4.41406 5.71875 4.47656 7.36719 4.55469C10.2969 4.70312 14.4141 4.90625 14.4062 7.53906C14.4062 10.5391 10.9688 11.25 7.28125 11.25C3.60156 11.2422 0.546875 10.7969 0.15625 7.53906H4.44531C4.91406 8.35156 6 8.5625 7.28125 8.5625C8.55469 8.5625 10.1172 8.35156 10.1172 7.53906C10.1172 7.07812 8.84375 7.00781 7.19531 6.92969C4.26562 6.78125 0.148438 6.57812 0.15625 3.95312C0.15625 0.953125 3.59375 0.234375 7.28125 0.234375C10.9609 0.257812 14.0156 0.671875 14.4062 3.95312H10.1172C9.64844 3.125 8.5625 2.92969 7.28125 2.92969C6.00781 2.92969 4.44531 3.11719 4.44531 3.95312ZM19.5938 5.36719H24.5938C24.8359 5.36719 25.0469 5.28125 25.2188 5.10938C25.3984 4.92969 25.4844 4.71875 25.4844 4.47656C25.4844 4.22656 25.3984 4.01562 25.2188 3.84375C25.0469 3.66406 24.8359 3.57812 24.5938 3.57812H19.5938V5.36719ZM15.5 0.507812H25.6172C27.7812 0.484375 29.6172 2.30469 29.5859 4.47656C29.6172 6.64062 27.7812 8.47656 25.6172 8.44531H19.5938V11.0078H15.5V0.507812ZM30.7031 11.0078V0.507812H42.9922V3.19531H34.7969V4.53906H42.9922V6.96875H34.7969V8.3125H42.9922V11.0078H30.7031ZM54.3281 6.64062H58.5234C58.2656 10.1875 55.1562 11.25 51.375 11.25C47.4375 11.2422 44.1875 10.1016 44.2031 6.125V5.35938C44.1875 1.39062 47.4375 0.25 51.375 0.234375C55.1562 0.242188 58.2656 1.30469 58.5234 4.84375H54.3281C53.9453 3.8125 52.7812 3.57031 51.375 3.57031C49.7031 3.59375 48.2812 3.89062 48.3047 5.61719V5.875C48.2812 7.58594 49.7031 7.89844 51.375 7.92188C52.7812 7.92188 53.9531 7.67188 54.3281 6.64062Z" fill="#73FF0F"/>
<path d="M62.9375 5.36719H67.9375C68.1797 5.36719 68.3906 5.28125 68.5625 5.10938C68.7422 4.92969 68.8281 4.71875 68.8281 4.47656C68.8281 4.22656 68.7422 4.01562 68.5625 3.84375C68.3906 3.66406 68.1797 3.57812 67.9375 3.57812H62.9375V5.36719ZM58.8438 0.507812H68.9609C71.125 0.484375 72.9609 2.30469 72.9297 4.47656C72.9609 6.64062 71.125 8.47656 68.9609 8.44531H62.9375V11.0078H58.8438V0.507812ZM74.0469 0.5H84.1641C86.3281 0.476562 88.1641 2.29688 88.1328 4.46875C88.1328 5.25781 87.9219 5.97656 87.5 6.61719C87.0859 7.25 86.5312 7.73438 85.8438 8.05469L88.1328 11H83.7734L81.7969 8.4375H78.1406V11H74.0469V0.5ZM83.1328 3.57031H78.1406V5.35938H83.1328C83.3828 5.35938 83.5938 5.27344 83.7656 5.10156C83.9453 4.92188 84.0312 4.71094 84.0312 4.46875C84.0312 3.96875 83.6328 3.57031 83.1328 3.57031ZM96.2812 0.234375C100.234 0.234375 103.445 1.39062 103.445 5.35938V6.125C103.461 10.0938 100.227 11.2422 96.2812 11.25C92.3281 11.2422 89.0938 10.0938 89.1094 6.125V5.35938C89.0938 1.38281 92.3281 0.242188 96.2812 0.234375ZM99.3516 5.86719V5.60938C99.375 3.89844 97.9531 3.58594 96.2812 3.5625C94.6016 3.58594 93.1797 3.89844 93.2031 5.60938V5.86719C93.1797 7.58594 94.6016 7.89844 96.2812 7.92188C97.9531 7.89844 99.375 7.58594 99.3516 5.86719ZM104.672 11.0078V0.507812H117.477V3.83594H108.766V5.11719H116.453V8.1875H108.766V11.0078H104.672ZM118.656 0.492188H122.75V10.9922H118.656V0.492188ZM124.922 0.492188H129.016V7.66406H137.211V10.9922H124.922V0.492188ZM138.609 11.0078V0.507812H150.898V3.19531H142.703V4.53906H150.898V6.96875H142.703V8.3125H150.898V11.0078H138.609Z" fill="#820078"/>
</svg>
