<svg width="152" height="12" viewBox="0 0 152 12" fill="none" xmlns="http://www.w3.org/2000/svg">
<path d="M4.44531 3.95312C4.44531 4.41406 5.71875 4.47656 7.36719 4.55469C10.2969 4.70312 14.4141 4.90625 14.4062 7.53906C14.4062 10.5391 10.9688 11.25 7.28125 11.25C3.60156 11.2422 0.546875 10.7969 0.15625 7.53906H4.44531C4.91406 8.35156 6 8.5625 7.28125 8.5625C8.55469 8.5625 10.1172 8.35156 10.1172 7.53906C10.1172 7.07812 8.84375 7.00781 7.19531 6.92969C4.26562 6.78125 0.148438 6.57812 0.15625 3.95312C0.15625 0.953125 3.59375 0.234375 7.28125 0.234375C10.9609 0.257812 14.0156 0.671875 14.4062 3.95312H10.1172C9.64844 3.125 8.5625 2.92969 7.28125 2.92969C6.00781 2.92969 4.44531 3.11719 4.44531 3.95312ZM19.5938 5.36719H24.5938C24.8359 5.36719 25.0469 5.28125 25.2188 5.10938C25.3984 4.92969 25.4844 4.71875 25.4844 4.47656C25.4844 4.22656 25.3984 4.01562 25.2188 3.84375C25.0469 3.66406 24.8359 3.57812 24.5938 3.57812H19.5938V5.36719ZM15.5 0.507812H25.6172C27.7812 0.484375 29.6172 2.30469 29.5859 4.47656C29.6172 6.64062 27.7812 8.47656 25.6172 8.44531H19.5938V11.0078H15.5V0.507812ZM30.7031 11.0078V0.507812H42.9922V3.19531H34.7969V4.53906H42.9922V6.96875H34.7969V8.3125H42.9922V11.0078H30.7031ZM54.3281 6.64062H58.5234C58.2656 10.1875 55.1562 11.25 51.375 11.25C47.4375 11.2422 44.1875 10.1016 44.2031 6.125V5.35938C44.1875 1.39062 47.4375 0.25 51.375 0.234375C55.1562 0.242188 58.2656 1.30469 58.5234 4.84375H54.3281C53.9453 3.8125 52.7812 3.57031 51.375 3.57031C49.7031 3.59375 48.2812 3.89062 48.3047 5.61719V5.875C48.2812 7.58594 49.7031 7.89844 51.375 7.92188C52.7812 7.92188 53.9531 7.67188 54.3281 6.64062Z" fill="#73FF0F"/>
<path d="M63.8438 5.36719H68.8438C69.0859 5.36719 69.2969 5.28125 69.4688 5.10938C69.6484 4.92969 69.7344 4.71875 69.7344 4.47656C69.7344 4.22656 69.6484 4.01562 69.4688 3.84375C69.2969 3.66406 69.0859 3.57812 68.8438 3.57812H63.8438V5.36719ZM59.75 0.507812H69.8672C72.0312 0.484375 73.8672 2.30469 73.8359 4.47656C73.8672 6.64062 72.0312 8.47656 69.8672 8.44531H63.8438V11.0078H59.75V0.507812ZM74.9531 0.5H85.0703C87.2344 0.476562 89.0703 2.29688 89.0391 4.46875C89.0391 5.25781 88.8281 5.97656 88.4062 6.61719C87.9922 7.25 87.4375 7.73438 86.75 8.05469L89.0391 11H84.6797L82.7031 8.4375H79.0469V11H74.9531V0.5ZM84.0391 3.57031H79.0469V5.35938H84.0391C84.2891 5.35938 84.5 5.27344 84.6719 5.10156C84.8516 4.92188 84.9375 4.71094 84.9375 4.46875C84.9375 3.96875 84.5391 3.57031 84.0391 3.57031ZM97.1875 0.234375C101.141 0.234375 104.352 1.39062 104.352 5.35938V6.125C104.367 10.0938 101.133 11.2422 97.1875 11.25C93.2344 11.2422 90 10.0938 90.0156 6.125V5.35938C90 1.38281 93.2344 0.242188 97.1875 0.234375ZM100.258 5.86719V5.60938C100.281 3.89844 98.8594 3.58594 97.1875 3.5625C95.5078 3.58594 94.0859 3.89844 94.1094 5.60938V5.86719C94.0859 7.58594 95.5078 7.89844 97.1875 7.92188C98.8594 7.89844 100.281 7.58594 100.258 5.86719ZM105.578 11.0078V0.507812H118.383V3.83594H109.672V5.11719H117.359V8.1875H109.672V11.0078H105.578ZM119.562 0.492188H123.656V10.9922H119.562V0.492188ZM125.828 0.492188H129.922V7.66406H138.117V10.9922H125.828V0.492188ZM139.516 11.0078V0.507812H151.805V3.19531H143.609V4.53906H151.805V6.96875H143.609V8.3125H151.805V11.0078H139.516Z" fill="#4F00B6"/>
</svg>
