<svg width="120" height="120" viewBox="0 0 120 120" fill="none" xmlns="http://www.w3.org/2000/svg">
<g id="ph:file-x-light">
<path id="Vector" d="M99.4875 39.2625L73.2375 13.0125C72.7106 12.4849 71.9957 12.1882 71.25 12.1875H26.25C24.5095 12.1875 22.8403 12.8789 21.6096 14.1096C20.3789 15.3403 19.6875 17.0095 19.6875 18.75V101.25C19.6875 102.99 20.3789 104.66 21.6096 105.89C22.8403 107.121 24.5095 107.812 26.25 107.812H93.75C95.4905 107.812 97.1597 107.121 98.3904 105.89C99.6211 104.66 100.312 102.99 100.312 101.25V41.25C100.312 40.5043 100.015 39.7894 99.4875 39.2625ZM74.0625 21.7875L90.7125 38.4375H74.0625V21.7875ZM94.6875 101.25C94.6875 101.499 94.5887 101.737 94.4129 101.913C94.2371 102.089 93.9986 102.188 93.75 102.188H26.25C26.0014 102.188 25.7629 102.089 25.5871 101.913C25.4113 101.737 25.3125 101.499 25.3125 101.25V18.75C25.3125 18.5014 25.4113 18.2629 25.5871 18.0871C25.7629 17.9113 26.0014 17.8125 26.25 17.8125H68.4375V41.25C68.4375 41.9959 68.7338 42.7113 69.2613 43.2387C69.7887 43.7662 70.5041 44.0625 71.25 44.0625H94.6875V101.25ZM73.2375 58.0125C73.7642 58.5398 74.06 59.2547 74.06 60C74.06 60.7453 73.7642 61.4602 73.2375 61.9875L63.9797 71.25L73.2375 80.5125C73.5138 80.77 73.7355 81.0805 73.8892 81.4255C74.0429 81.7705 74.1256 82.1429 74.1322 82.5205C74.1389 82.8982 74.0694 83.2733 73.928 83.6235C73.7865 83.9737 73.576 84.2918 73.3089 84.5589C73.0418 84.826 72.7237 85.0365 72.3735 85.178C72.0233 85.3194 71.6482 85.3889 71.2705 85.3822C70.8929 85.3755 70.5205 85.2929 70.1755 85.1392C69.8305 84.9855 69.52 84.7638 69.2625 84.4875L60 75.2297L50.7375 84.4875C50.2043 84.9843 49.4992 85.2548 48.7705 85.2419C48.0419 85.229 47.3467 84.9339 46.8314 84.4186C46.3161 83.9033 46.0209 83.2081 46.0081 82.4795C45.9952 81.7508 46.2657 81.0457 46.7625 80.5125L56.0203 71.25L46.7625 61.9875C46.4862 61.73 46.2645 61.4195 46.1108 61.0745C45.9571 60.7295 45.8744 60.3571 45.8678 59.9795C45.8611 59.6018 45.9306 59.2267 46.072 58.8765C46.2135 58.5263 46.424 58.2082 46.6911 57.9411C46.9582 57.674 47.2763 57.4635 47.6265 57.322C47.9767 57.1806 48.3518 57.1111 48.7295 57.1178C49.1071 57.1244 49.4795 57.2071 49.8245 57.3608C50.1695 57.5145 50.48 57.7362 50.7375 58.0125L60 67.2703L69.2625 58.0125C69.7898 57.4858 70.5047 57.19 71.25 57.19C71.9953 57.19 72.7102 57.4858 73.2375 58.0125Z" fill="#D8D8D8"/>
</g>
</svg>
