<svg width="228" height="18" viewBox="0 0 228 18" fill="none" xmlns="http://www.w3.org/2000/svg">
<path d="M6.66797 6.42969C6.66797 7.12109 8.57812 7.21484 11.0508 7.33203C15.4453 7.55469 21.6211 7.85938 21.6094 11.8086C21.6094 16.3086 16.4531 17.375 10.9219 17.375C5.40234 17.3633 0.820312 16.6953 0.234375 11.8086H6.66797C7.37109 13.0273 9 13.3438 10.9219 13.3438C12.832 13.3438 15.1758 13.0273 15.1758 11.8086C15.1758 11.1172 13.2656 11.0117 10.793 10.8945C6.39844 10.6719 0.222656 10.3672 0.234375 6.42969C0.234375 1.92969 5.39062 0.851562 10.9219 0.851562C16.4414 0.886719 21.0234 1.50781 21.6094 6.42969H15.1758C14.4727 5.1875 12.8438 4.89453 10.9219 4.89453C9.01172 4.89453 6.66797 5.17578 6.66797 6.42969ZM29.3906 8.55078H36.8906C37.2539 8.55078 37.5703 8.42188 37.8281 8.16406C38.0977 7.89453 38.2266 7.57812 38.2266 7.21484C38.2266 6.83984 38.0977 6.52344 37.8281 6.26562C37.5703 5.99609 37.2539 5.86719 36.8906 5.86719H29.3906V8.55078ZM23.25 1.26172H38.4258C41.6719 1.22656 44.4258 3.95703 44.3789 7.21484C44.4258 10.4609 41.6719 13.2148 38.4258 13.168H29.3906V17.0117H23.25V1.26172ZM46.0547 17.0117V1.26172H64.4883V5.29297H52.1953V7.30859H64.4883V10.9531H52.1953V12.9688H64.4883V17.0117H46.0547ZM81.4922 10.4609H87.7852C87.3984 15.7812 82.7344 17.375 77.0625 17.375C71.1562 17.3633 66.2812 15.6523 66.3047 9.6875V8.53906C66.2812 2.58594 71.1562 0.875 77.0625 0.851562C82.7344 0.863281 87.3984 2.45703 87.7852 7.76562H81.4922C80.918 6.21875 79.1719 5.85547 77.0625 5.85547C74.5547 5.89062 72.4219 6.33594 72.457 8.92578V9.3125C72.4219 11.8789 74.5547 12.3477 77.0625 12.3828C79.1719 12.3828 80.9297 12.0078 81.4922 10.4609Z" fill="#73FF0F"/>
<path d="M95.7656 8.55078H103.266C103.629 8.55078 103.945 8.42188 104.203 8.16406C104.473 7.89453 104.602 7.57812 104.602 7.21484C104.602 6.83984 104.473 6.52344 104.203 6.26562C103.945 5.99609 103.629 5.86719 103.266 5.86719H95.7656V8.55078ZM89.625 1.26172H104.801C108.047 1.22656 110.801 3.95703 110.754 7.21484C110.801 10.4609 108.047 13.2148 104.801 13.168H95.7656V17.0117H89.625V1.26172ZM112.43 1.25H127.605C130.852 1.21484 133.605 3.94531 133.559 7.20312C133.559 8.38672 133.242 9.46484 132.609 10.4258C131.988 11.375 131.156 12.1016 130.125 12.582L133.559 17H127.02L124.055 13.1562H118.57V17H112.43V1.25ZM126.059 5.85547H118.57V8.53906H126.059C126.434 8.53906 126.75 8.41016 127.008 8.15234C127.277 7.88281 127.406 7.56641 127.406 7.20312C127.406 6.45312 126.809 5.85547 126.059 5.85547ZM145.781 0.851562C151.711 0.851562 156.527 2.58594 156.527 8.53906V9.6875C156.551 15.6406 151.699 17.3633 145.781 17.375C139.852 17.3633 135 15.6406 135.023 9.6875V8.53906C135 2.57422 139.852 0.863281 145.781 0.851562ZM150.387 9.30078V8.91406C150.422 6.34766 148.289 5.87891 145.781 5.84375C143.262 5.87891 141.129 6.34766 141.164 8.91406V9.30078C141.129 11.8789 143.262 12.3477 145.781 12.3828C148.289 12.3477 150.422 11.8789 150.387 9.30078ZM158.367 17.0117V1.26172H177.574V6.25391H164.508V8.17578H176.039V12.7812H164.508V17.0117H158.367ZM179.344 1.23828H185.484V16.9883H179.344V1.23828ZM188.742 1.23828H194.883V11.9961H207.176V16.9883H188.742V1.23828ZM209.273 17.0117V1.26172H227.707V5.29297H215.414V7.30859H227.707V10.9531H215.414V12.9688H227.707V17.0117H209.273Z" fill="#4F00B6"/>
</svg>
